<svg xmlns="http://www.w3.org/2000/svg" width="94.03" height="16.031" viewBox="0 0 94.03 16.031">
  <metadata><?xpacket begin="﻿" id="W5M0MpCehiHzreSzNTczkc9d"?>
<x:xmpmeta xmlns:x="adobe:ns:meta/" x:xmptk="Adobe XMP Core 5.6-c142 79.160924, 2017/07/13-01:06:39        ">
   <rdf:RDF xmlns:rdf="http://www.w3.org/1999/02/22-rdf-syntax-ns#">
      <rdf:Description rdf:about=""/>
   </rdf:RDF>
</x:xmpmeta>
                                                                                                    
                                                                                                    
                                                                                                    
                                                                                                    
                                                                                                    
                                                                                                    
                                                                                                    
                                                                                                    
                                                                                                    
                                                                                                    
                                                                                                    
                                                                                                    
                                                                                                    
                                                                                                    
                                                                                                    
                                                                                                    
                                                                                                    
                                                                                                    
                                                                                                    
                                                                                                    
                           
<?xpacket end="w"?></metadata>
<defs>
    <style>
      .cls-1 {
        fill-rule: evenodd;
      }
    </style>
  </defs>
  <path id="arrow-right" class="cls-1" d="M1343.65,347.2h0l-7.12-6.871a1.207,1.207,0,0,0-1.66,0,1.1,1.1,0,0,0,.01,1.6l5.11,4.942h-74.82a1.13,1.13,0,1,0,0,2.258h74.82l-5.11,4.942a1.1,1.1,0,0,0-.01,1.6,1.206,1.206,0,0,0,1.66,0l7.12-6.871h0A1.1,1.1,0,0,0,1343.65,347.2ZM1262,347a1,1,0,1,1-1,1A1,1,0,0,1,1262,347Zm-11,0a1,1,0,1,1-1,1A1,1,0,0,1,1251,347Zm7,0a1,1,0,1,1-1,1A1,1,0,0,1,1258,347Z" transform="translate(-1250 -340)"/>
</svg>
